<?xml version="1.0" encoding="utf-8"?>
<!-- Generator: Adobe Illustrator 23.0.3, SVG Export Plug-In . SVG Version: 6.00 Build 0)  -->
<svg version="1.1" id="Icons" xmlns="http://www.w3.org/2000/svg" xmlns:xlink="http://www.w3.org/1999/xlink" x="0px" y="0px"
	 viewBox="0 0 32 32" style="enable-background:new 0 0 32 32;" xml:space="preserve">
<style type="text/css">
	.st0{fill:none;stroke:#000000;stroke-width:2;stroke-linecap:round;stroke-linejoin:round;stroke-miterlimit:10;}
</style>
<line class="st0" x1="7" y1="31" x2="25" y2="31"/>
<polyline class="st0" points="13,21 22,31 19,18 "/>
<polyline class="st0" points="13,18 10,31 19,21 "/>
<circle class="st0" cx="16" cy="10" r="2"/>
<line class="st0" x1="23" y1="10" x2="18" y2="10"/>
<polygon class="st0" points="28,13 23,12 23,8 28,7 "/>
<line class="st0" x1="16" y1="1" x2="16" y2="5"/>
<line class="st0" x1="9.6" y1="3.6" x2="12.5" y2="6.5"/>
<line class="st0" x1="7" y1="10" x2="11" y2="10"/>
<line class="st0" x1="9.6" y1="16.4" x2="12.5" y2="13.5"/>
<line class="st0" x1="16" y1="19" x2="16" y2="15"/>
<line class="st0" x1="22.4" y1="16.4" x2="19.5" y2="13.5"/>
<line class="st0" x1="22.4" y1="3.6" x2="19.5" y2="6.5"/>
</svg>
